<?xml version="1.0" encoding="UTF-8"?>
<svg version="1.1" xmlns="http://www.w3.org/2000/svg" width="512" height="512">
<path d="M0 0 C1.01790619 0.00215515 2.03581238 0.0043103 3.08456421 0.00653076 C17.69363523 0.05620146 32.02575853 0.30709809 46.375 3.3125 C47.34985352 3.51117676 48.32470703 3.70985352 49.32910156 3.91455078 C97.7109774 14.03517194 141.69928269 35.9516877 177.375 70.3125 C178.3640332 71.26068604 178.3640332 71.26068604 179.37304688 72.22802734 C188.86130305 81.37247479 197.6012044 90.66984009 205.375 101.3125 C206.23306152 102.46355017 207.09113451 103.61459177 207.94921875 104.765625 C213.98736829 112.95680614 219.34595521 121.47054105 224.375 130.3125 C224.73948242 130.94430176 225.10396484 131.57610352 225.47949219 132.22705078 C247.08534998 169.97532572 256.85198095 212.74189997 256.6875 255.9375 C256.68534485 256.95540619 256.6831897 257.97331238 256.68096924 259.02206421 C256.63129854 273.63113523 256.38040191 287.96325853 253.375 302.3125 C253.07698486 303.77478027 253.07698486 303.77478027 252.77294922 305.26660156 C242.65232806 353.6484774 220.7358123 397.63678269 186.375 433.3125 C185.74287598 433.97185547 185.11075195 434.63121094 184.45947266 435.31054688 C175.31502521 444.79880305 166.01765991 453.5387044 155.375 461.3125 C154.22394983 462.17056152 153.07290823 463.02863451 151.921875 463.88671875 C143.73224019 469.92427396 135.22961724 475.30707302 126.375 480.3125 C125.66778809 480.7146875 124.96057617 481.116875 124.23193359 481.53125 C101.09654164 494.5566741 75.92537591 503.30551461 49.9375 508.625 C49.21860596 508.77235596 48.49971191 508.91971191 47.7590332 509.0715332 C33.08339502 511.86090125 18.55831162 512.66142619 3.64770508 512.62817383 C0.70811513 512.6250221 -2.2304558 512.64854926 -5.16992188 512.67382812 C-18.54306192 512.71848737 -31.43916711 511.51301542 -44.625 509.3125 C-46.33055054 509.03031616 -46.33055054 509.03031616 -48.07055664 508.74243164 C-91.33802759 500.97044532 -132.38793216 480.98345309 -165.625 452.3125 C-166.37007813 451.67828125 -167.11515625 451.0440625 -167.8828125 450.390625 C-181.38779833 438.57948485 -194.05918743 425.82889772 -204.625 411.3125 C-205.48149066 410.16255169 -206.33826433 409.01281411 -207.1953125 407.86328125 C-213.23534209 399.67315742 -218.61867614 391.16870382 -223.625 382.3125 C-224.0271875 381.60528809 -224.429375 380.89807617 -224.84375 380.16943359 C-237.8691741 357.03404164 -246.61801461 331.86287591 -251.9375 305.875 C-252.08485596 305.15610596 -252.23221191 304.43721191 -252.3840332 303.6965332 C-255.35789088 288.05024391 -255.99800362 272.57681954 -255.9375 256.6875 C-255.93534485 255.66959381 -255.9331897 254.65168762 -255.93096924 253.60293579 C-255.88129854 238.99386477 -255.63040191 224.66174147 -252.625 210.3125 C-252.42632324 209.33764648 -252.22764648 208.36279297 -252.02294922 207.35839844 C-241.90232806 158.9765226 -219.9858123 114.98821731 -185.625 79.3125 C-184.99287598 78.65314453 -184.36075195 77.99378906 -183.70947266 77.31445312 C-174.56502521 67.82619695 -165.26765991 59.0862956 -154.625 51.3125 C-153.47394983 50.45443848 -152.32290823 49.59636549 -151.171875 48.73828125 C-142.98224019 42.70072604 -134.47961724 37.31792698 -125.625 32.3125 C-124.91778809 31.9103125 -124.21057617 31.508125 -123.48193359 31.09375 C-100.34654164 18.0683259 -75.17537591 9.31948539 -49.1875 4 C-48.46860596 3.85264404 -47.74971191 3.70528809 -47.0090332 3.5534668 C-31.36274391 0.57960912 -15.88931954 -0.06050362 0 0 Z " fill="#3C3B6E" transform="translate(255.625,-0.3125)"/>
<path d="M0 0 C168.3 0 336.6 0 510 0 C507.65671368 19.91793368 507.65671368 19.91793368 505.375 29.0625 C505.11630127 30.11268311 504.85760254 31.16286621 504.59106445 32.24487305 C493.50320483 75.97288465 472.33152046 115.46949818 441 148 C440.36787598 148.65935547 439.73575195 149.31871094 439.08447266 149.99804688 C429.94002521 159.48630305 420.64265991 168.2262044 410 176 C408.84894983 176.85806152 407.69790823 177.71613451 406.546875 178.57421875 C398.35724019 184.61177396 389.85461724 189.99457302 381 195 C379.93918213 195.60328125 379.93918213 195.60328125 378.85693359 196.21875 C355.72154164 209.2441741 330.55037591 217.99301461 304.5625 223.3125 C303.84360596 223.45985596 303.12471191 223.60721191 302.3840332 223.7590332 C287.70839502 226.54840125 273.18331162 227.34892619 258.27270508 227.31567383 C255.33311513 227.3125221 252.3945442 227.33604926 249.45507812 227.36132812 C236.08193808 227.40598737 223.18583289 226.20051542 210 224 C208.86296631 223.81187744 207.72593262 223.62375488 206.55444336 223.42993164 C163.28697241 215.65794532 122.23706784 195.67095309 89 167 C88.25492187 166.36578125 87.50984375 165.7315625 86.7421875 165.078125 C73.23720167 153.26698485 60.56581257 140.51639772 50 126 C49.14350934 124.85005169 48.28673567 123.70031411 47.4296875 122.55078125 C41.38965791 114.36065742 36.00632386 105.85620382 31 97 C30.5978125 96.29278809 30.195625 95.58557617 29.78125 94.85693359 C13.4476329 65.84562229 3.01445748 33.15903231 0 0 Z " fill="#FEFEFE" transform="translate(1,285)"/>
<path d="M0 0 C168.3 0 336.6 0 510 0 C508.78504057 10.32715519 507.65089899 19.810142 505.125 29.75 C504.86178955 30.81476563 504.5985791 31.87953125 504.32739258 32.9765625 C499.08471199 53.91528801 499.08471199 53.91528801 497 56 C494.4305918 56.09887055 491.88805646 56.1317717 489.3181448 56.12304783 C488.49981809 56.12420167 487.68149138 56.12535552 486.8383669 56.12654433 C484.06063607 56.12921849 481.28296172 56.1246823 478.50523376 56.12025452 C476.50796719 56.12069006 474.51070068 56.12156464 472.51343447 56.12284368 C466.99732487 56.12509205 461.48123449 56.12106272 455.96512735 56.11606562 C450.02712081 56.11176618 444.08911544 56.11320718 438.15110779 56.1139679 C427.85388379 56.11449345 417.55666565 56.11137807 407.25944328 56.10573006 C396.45597237 56.09981951 385.65250397 56.09596542 374.84903145 56.09487724 C373.8426468 56.09477413 373.8426468 56.09477413 372.81593114 56.09466894 C369.40885836 56.09433062 366.00178558 56.09402923 362.5947128 56.09374207 C338.44229054 56.09163986 314.28987158 56.08489751 290.13745117 56.07543945 C266.66902687 56.06625983 243.20060347 56.05917386 219.73217773 56.05493164 C219.0091862 56.05480011 218.28619466 56.05466859 217.54129429 56.05453308 C210.28092836 56.05321459 203.02056241 56.05193877 195.76019646 56.05069422 C180.96908295 56.04815779 166.1779695 56.04533653 151.38685608 56.04234314 C150.36667706 56.0421372 150.36667706 56.0421372 149.32588836 56.04192711 C103.88392418 56.03272147 58.44196191 56.01685494 13 56 C12.35189154 54.3971607 11.70549632 52.79362858 11.05982971 51.18980408 C10.51961355 49.85046515 10.51961355 49.85046515 9.96848392 48.48406887 C8.93496368 45.83318806 8.10258556 43.19885866 7.40234375 40.44140625 C7.03810303 39.00994263 7.03810303 39.00994263 6.66650391 37.54956055 C6.42593262 36.56383057 6.18536133 35.57810059 5.9375 34.5625 C5.68145996 33.52714111 5.42541992 32.49178223 5.16162109 31.42504883 C0 10.00809969 0 10.00809969 0 0 Z " fill="#FFFFFF" transform="translate(1,285)"/>
<path d="M0 0 C159.72 0 319.44 0 484 0 C481.96320547 6.78931509 479.91222706 12.99265047 477 19.375 C476.42330566 20.64670044 476.42330566 20.64670044 475.83496094 21.9440918 C472.87103881 28.3613965 469.64595384 34.61395891 466.25 40.8125 C465.80269531 41.62960449 465.35539062 42.44670898 464.89453125 43.28857422 C463.62883432 45.55377736 462.36773606 47.79453724 461 50 C460.49169018 51.18340564 459.98338036 52.36681128 459.45966721 53.58607769 C457.38423325 56.42324074 456.23710854 56.95187788 452.7412858 57.66136897 C448.23652336 58.02720372 443.72668158 57.96746021 439.21075439 57.93598938 C437.44741451 57.94906452 435.68409491 57.96516884 433.9208076 57.98404664 C429.06937413 58.02694226 424.21878366 58.02593014 419.36720371 58.01768601 C414.13721705 58.01625963 408.907503 58.05487311 403.67764282 58.08808899 C393.4289062 58.14627706 383.18045136 58.16547475 372.93156341 58.16937564 C364.60172194 58.17269996 356.27197358 58.18707405 347.94216156 58.20928001 C324.33278385 58.27093918 300.72362903 58.30321383 277.11417022 58.2979667 C275.84092764 58.297687 274.56768506 58.29740731 273.25585938 58.29711914 C271.98106455 58.29683298 270.70626973 58.29654681 269.39284477 58.29625197 C248.73184041 58.29340668 228.07172903 58.36038996 207.410983 58.45908771 C186.20377474 58.55959757 164.99700213 58.60798104 143.78954959 58.60193127 C131.88018269 58.59960605 119.97175176 58.61889411 108.06259918 58.69417763 C97.92240913 58.757867 87.78357906 58.77318161 77.64327577 58.72561166 C72.468643 58.70272624 67.29661999 58.70244023 62.12223434 58.76308441 C57.3832805 58.81805411 52.64900953 58.80824382 47.91017208 58.74709549 C46.19750059 58.7363276 44.48448201 58.74915795 42.77221981 58.78811602 C30.32486705 59.05253649 30.32486705 59.05253649 26.44663614 55.62859426 C23.22916593 51.78781099 21.12289552 47.51163109 19 43 C18.01077893 41.24054869 17.01238475 39.48614273 15.99609375 37.7421875 C15.13377757 36.12479545 14.28088095 34.50234594 13.4375 32.875 C12.98205811 32.00190186 12.52661621 31.12880371 12.05737305 30.22924805 C0 6.64479819 0 6.64479819 0 0 Z " fill="#B22335" transform="translate(14,341)"/>
<path d="M0 0 C76.23 0 152.46 0 231 0 C231.71208739 3.56043693 232.12584524 6.17971544 232.12939453 9.69506836 C232.13254669 10.59627914 232.13569885 11.49748993 232.13894653 12.42601013 C232.13591019 13.86835777 232.13591019 13.86835777 232.1328125 15.33984375 C232.13424759 16.83941368 232.13424759 16.83941368 232.13571167 18.36927795 C232.13639101 20.47982852 232.1345539 22.5903812 232.13037109 24.70092773 C232.12502504 27.92241132 232.13032156 31.14375514 232.13671875 34.36523438 C232.13605781 36.41927114 232.13477633 38.47330782 232.1328125 40.52734375 C232.13483673 41.48688461 232.13686096 42.44642548 232.13894653 43.43504333 C232.13579437 44.33940628 232.13264221 45.24376923 232.12939453 46.17553711 C232.12820114 47.35870766 232.12820114 47.35870766 232.12698364 48.56578064 C231.97922108 51.39832258 231.4663002 54.20219877 231 57 C62.7 57 -105.6 57 -279 57 C-279 56.67 -279 56.34 -279 56 C-186.93 56 -94.86 56 0 56 C0 37.52 0 19.04 0 0 Z " fill="#B22537" transform="translate(280,228)"/>
<path d="M0 0 C71.94 0 143.88 0 218 0 C222.50961156 11.2740289 222.50961156 11.2740289 223.59765625 15.55859375 C223.8404834 16.51282227 224.08331055 17.46705078 224.33349609 18.45019531 C224.69435303 19.92891113 224.69435303 19.92891113 225.0625 21.4375 C225.44656006 22.99162598 225.44656006 22.99162598 225.83837891 24.57714844 C228.37189101 35.09501347 231 46.1357898 231 57 C154.77 57 78.54 57 0 57 C0 38.19 0 19.38 0 0 Z " fill="#FEFDFD" transform="translate(280,171)"/>
<path d="M0 0 C106.26 0 212.52 0 322 0 C293.1681919 28.8318081 249.76175312 45.28876404 210.5625 53.3125 C209.84360596 53.45985596 209.12471191 53.60721191 208.3840332 53.7590332 C193.70839502 56.54840125 179.18331162 57.34892619 164.27270508 57.31567383 C161.33311513 57.3125221 158.3945442 57.33604926 155.45507812 57.36132812 C142.08193808 57.40598737 129.18583289 56.20051542 116 54 C114.86296631 53.81187744 113.72593262 53.62375488 112.55444336 53.42993164 C72.20444383 46.18200063 31.00523349 28.20769327 0 1 C0 0.67 0 0.34 0 0 Z " fill="#B22436" transform="translate(95,455)"/>
<path d="M0 0 C24.61753089 -0.31616616 49.23341558 -0.57399526 73.85246181 -0.72537041 C85.28381014 -0.79752825 96.71380661 -0.8958791 108.14428711 -1.05615234 C118.10851463 -1.19579969 128.07176317 -1.28603834 138.03694206 -1.31723893 C143.31292912 -1.33547604 148.58611592 -1.37824644 153.86120415 -1.48022079 C158.83042694 -1.57550103 163.79570711 -1.60451962 168.76575661 -1.58350754 C170.58599695 -1.58734883 172.4063735 -1.61506965 174.22582245 -1.66887665 C187.60607329 -2.04505259 187.60607329 -2.04505259 191.60809064 1.37373877 C194.85938924 5.19585422 196.92334788 9.46218518 199 14 C199.9010626 15.59226518 200.81331388 17.17842711 201.75 18.75 C202.50936663 20.16166808 203.25943329 21.57837931 204 23 C204.40589355 23.77400146 204.81178711 24.54800293 205.22998047 25.34545898 C218 50.26552224 218 50.26552224 218 57 C146.06 57 74.12 57 0 57 C0 38.19 0 19.38 0 0 Z " fill="#B22335" transform="translate(280,114)"/>
<path d="M0 0 C17.86441833 -0.31696116 35.72640967 -0.5744457 53.59286594 -0.72537041 C61.89000708 -0.79733383 70.18526783 -0.89529781 78.48120117 -1.05615234 C85.71851166 -1.19641283 92.95445984 -1.28617962 100.19309181 -1.31723893 C104.02105083 -1.33537711 107.84511557 -1.37747163 111.67181587 -1.48022079 C138.02326308 -2.1607783 138.02326308 -2.1607783 146.29764462 4.89091301 C148.64104999 7.25020104 150.74540424 9.69387822 152.73682213 12.35566807 C154.46543177 14.60587217 156.48007779 16.47305685 158.578125 18.375 C166.79427935 26.42498734 174.17660245 34.7458191 181 44 C181.81570619 45.0825591 182.63209859 46.16460152 183.44921875 47.24609375 C189 54.69557155 189 54.69557155 189 57 C126.63 57 64.26 57 0 57 C0 38.19 0 19.38 0 0 Z " fill="#FEFDFD" transform="translate(280,57)"/>
<path d="M0 0 C18.75537283 1.1722108 18.75537283 1.1722108 27.375 3.0625 C28.88211548 3.387948 28.88211548 3.387948 30.41967773 3.7199707 C50.7930511 8.29230116 70.16422031 15.01289976 89 24 C90.14106201 24.54261475 90.14106201 24.54261475 91.30517578 25.09619141 C107.31965844 32.84187608 123.96240233 42.80580488 137 55 C137 55.33 137 55.66 137 56 C91.79 56 46.58 56 0 56 C0 37.52 0 19.04 0 0 Z " fill="#B22536" transform="translate(280,1)"/>
<path d="M0 0 C2.31005869 2.31005869 2.72174103 3.83083657 3.625 6.9375 C4.01558594 8.25041016 4.01558594 8.25041016 4.4140625 9.58984375 C5 12 5 12 5 15 C10.61 15 16.22 15 22 15 C17.96080655 19.03919345 14.60212178 21.84168113 10 25 C10.22816406 25.74765625 10.45632812 26.4953125 10.69140625 27.265625 C10.97886719 28.25046875 11.26632813 29.2353125 11.5625 30.25 C11.85253906 31.22453125 12.14257812 32.1990625 12.44140625 33.203125 C13 36 13 36 12 40 C8.37 37.36 4.74 34.72 1 32 C-0.753125 33.11375 -2.50625 34.2275 -4.3125 35.375 C-5.29863281 36.00148437 -6.28476563 36.62796875 -7.30078125 37.2734375 C-9.21287929 38.49651613 -11.1114034 39.7409356 -13 41 C-12.79503906 40.26394531 -12.59007812 39.52789062 -12.37890625 38.76953125 C-11.97478516 37.30580078 -11.97478516 37.30580078 -11.5625 35.8125 C-11.29566406 34.84957031 -11.02882812 33.88664062 -10.75390625 32.89453125 C-10.07119982 30.27336303 -9.50107805 27.661065 -9 25 C-10.299375 24.04287109 -10.299375 24.04287109 -11.625 23.06640625 C-12.75012461 22.23193883 -13.87511788 21.39729428 -15 20.5625 C-15.57234375 20.14162109 -16.1446875 19.72074219 -16.734375 19.28710938 C-18.17453919 18.21555864 -19.58951996 17.11033324 -21 16 C-21 15.67 -21 15.34 -21 15 C-15.39 15 -9.78 15 -4 15 C-3.67 12.69 -3.34 10.38 -3 8 C-2.14816137 5.25028257 -1.07924619 2.6746536 0 0 Z " fill="#F4F4F7" transform="translate(185,23)"/>
<path d="M0 0 C0.66 0 1.32 0 2 0 C2.67031719 1.9570868 3.33614683 3.91571113 4 5.875 C4.556875 7.51082031 4.556875 7.51082031 5.125 9.1796875 C6 12 6 12 6 14 C11.28 14 16.56 14 22 14 C15.7 20.3 15.7 20.3 12 23 C11.34 23 10.68 23 10 23 C10.30035156 23.90363281 10.60070312 24.80726562 10.91015625 25.73828125 C11.29042969 26.91777344 11.67070312 28.09726563 12.0625 29.3125 C12.44535156 30.48425781 12.82820313 31.65601563 13.22265625 32.86328125 C14 36 14 36 13 39 C9.37 36.36 5.74 33.72 2 31 C-1.8592646 32.9296323 -4.83479454 35.10744173 -8.1953125 37.7578125 C-10 39 -10 39 -12 39 C-11.7834375 38.18015625 -11.566875 37.3603125 -11.34375 36.515625 C-11.0653125 35.43796875 -10.786875 34.3603125 -10.5 33.25 C-10.2215625 32.18265625 -9.943125 31.1153125 -9.65625 30.015625 C-8.85824011 26.86294698 -8.85824011 26.86294698 -9 23 C-11.43188814 20.78278473 -11.43188814 20.78278473 -14.5 18.8125 C-16.34416806 17.55744118 -18.18060403 16.29070786 -20 15 C-20 14.67 -20 14.34 -20 14 C-14.72 14 -9.44 14 -4 14 C-3.525625 12.246875 -3.05125 10.49375 -2.5625 8.6875 C-1.77029018 5.75976807 -0.95928532 2.87785595 0 0 Z " fill="#F5F5F7" transform="translate(231,64)"/>
<path d="M0 0 C0.66 0 1.32 0 2 0 C2.6700834 2.12392506 3.33596797 4.24917524 4 6.375 C4.37125 7.55835938 4.7425 8.74171875 5.125 9.9609375 C6 13 6 13 6 15 C11.28 15 16.56 15 22 15 C18.12038353 18.87961647 15.43416733 21.2157554 11 24 C11.69165788 29.41798672 12.75799248 34.6822785 14 40 C13.25234375 39.4946875 12.5046875 38.989375 11.734375 38.46875 C10.74953125 37.8190625 9.7646875 37.169375 8.75 36.5 C7.28820312 35.52546875 7.28820312 35.52546875 5.796875 34.53125 C2.94667146 32.67985009 2.94667146 32.67985009 -1 33 C-3.6513729 34.5172598 -3.6513729 34.5172598 -6.25 36.5 C-7.58804688 37.47453125 -7.58804688 37.47453125 -8.953125 38.46875 C-9.62859375 38.9740625 -10.3040625 39.479375 -11 40 C-12 38 -12 38 -11.44140625 35.7578125 C-11.15136719 34.88898438 -10.86132812 34.02015625 -10.5625 33.125 C-9.43414668 29.73488017 -9 27.65694328 -9 24 C-11.43188814 21.78278473 -11.43188814 21.78278473 -14.5 19.8125 C-16.34416806 18.55744118 -18.18060403 17.29070786 -20 16 C-20 15.67 -20 15.34 -20 15 C-14.72 15 -9.44 15 -4 15 C-3.525625 13.2675 -3.05125 11.535 -2.5625 9.75 C-2.29566406 8.77546875 -2.02882812 7.8009375 -1.75390625 6.796875 C-1.14455416 4.53627347 -0.55761745 2.27377991 0 0 Z " fill="#F5F5F7" transform="translate(231,143)"/>
<path d="M0 0 C2.17186421 2.17186421 2.6793248 3.49976531 3.625 6.375 C4.01558594 7.53128906 4.01558594 7.53128906 4.4140625 8.7109375 C5 11 5 11 5 15 C10.61 15 16.22 15 22 15 C19.3998525 17.6001475 17.28520326 19.67311485 14.375 21.75 C13.78460938 22.17796875 13.19421875 22.6059375 12.5859375 23.046875 C11 24 11 24 9 24 C11.475 31.92 11.475 31.92 14 40 C10.0867294 38.43469176 7.86800738 37.35471762 4.6875 34.875 C3.99011719 34.33617187 3.29273438 33.79734375 2.57421875 33.2421875 C2.05472656 32.83226562 1.53523438 32.42234375 1 32 C-3.34170523 34.3836813 -7.2064129 36.78119883 -11 40 C-11.66 39.67 -12.32 39.34 -13 39 C-11.35 34.05 -9.7 29.1 -8 24 C-10.475 23.01 -10.475 23.01 -13 22 C-15.23828125 20.52734375 -15.23828125 20.52734375 -17.3125 18.9375 C-18.00988281 18.41027344 -18.70726562 17.88304688 -19.42578125 17.33984375 C-19.94527344 16.89769531 -20.46476563 16.45554687 -21 16 C-21 15.67 -21 15.34 -21 15 C-15.39 15 -9.78 15 -4 15 C-3.67 12.69 -3.34 10.38 -3 8 C-2.14816137 5.25028257 -1.07924619 2.6746536 0 0 Z " fill="#F5F5F8" transform="translate(185,103)"/>
<path d="M0 0 C4.36428792 3.58189457 4.69678384 8.72507746 6 14 C11.28 14 16.56 14 22 14 C17.96080655 18.03919345 14.60212178 20.84168113 10 24 C10.28875 24.91523437 10.5775 25.83046875 10.875 26.7734375 C11.24625 27.96195313 11.6175 29.15046875 12 30.375 C12.37125 31.55835937 12.7425 32.74171875 13.125 33.9609375 C14 37 14 37 14 39 C10.96147295 37.59023295 8.4060405 35.91129772 5.75 33.875 C5.04359375 33.33617187 4.3371875 32.79734375 3.609375 32.2421875 C3.07828125 31.83226563 2.5471875 31.42234375 2 31 C-1.10742423 32.46818668 -3.90471739 34.20025 -6.75 36.125 C-7.54921875 36.66382813 -8.3484375 37.20265625 -9.171875 37.7578125 C-9.77515625 38.16773438 -10.3784375 38.57765625 -11 39 C-12.152143 35.54357099 -11.80875337 34.84707 -10.5625 31.5625 C-9.33348958 28.30534683 -9 26.61614577 -9 23 C-11.43188814 20.78278473 -11.43188814 20.78278473 -14.5 18.8125 C-16.34416806 17.55744118 -18.18060403 16.29070786 -20 15 C-20 14.67 -20 14.34 -20 14 C-14.72 14 -9.44 14 -4 14 C-3.71125 12.618125 -3.4225 11.23625 -3.125 9.8125 C-2.36695066 6.3796194 -1.45231137 3.21583233 0 0 Z " fill="#F5F5F7" transform="translate(138,64)"/>
<path d="M0 0 C1.74949772 2.62424658 2.65389981 4.55727216 3.625 7.5 C4.01558594 8.66015625 4.01558594 8.66015625 4.4140625 9.84375 C5 12 5 12 5 15 C10.28 15 15.56 15 21 15 C14.7 21.3 14.7 21.3 11 24 C10.34 24 9.68 24 9 24 C9.30035156 24.90363281 9.60070312 25.80726563 9.91015625 26.73828125 C10.29042969 27.91777344 10.67070313 29.09726563 11.0625 30.3125 C11.44535156 31.48425781 11.82820313 32.65601563 12.22265625 33.86328125 C13 37 13 37 12 40 C8.37 37.36 4.74 34.72 1 32 C-2.8592646 33.9296323 -5.83479454 36.10744173 -9.1953125 38.7578125 C-11 40 -11 40 -13 40 C-12.79503906 39.25234375 -12.59007813 38.5046875 -12.37890625 37.734375 C-12.10949219 36.74953125 -11.84007813 35.7646875 -11.5625 34.75 C-11.29566406 33.77546875 -11.02882813 32.8009375 -10.75390625 31.796875 C-10.14455416 29.53627347 -9.55761745 27.27377991 -9 25 C-10.299375 24.04287109 -10.299375 24.04287109 -11.625 23.06640625 C-12.75012461 22.23193883 -13.87511788 21.39729428 -15 20.5625 C-15.57234375 20.14162109 -16.1446875 19.72074219 -16.734375 19.28710938 C-18.17453919 18.21555864 -19.58951996 17.11033324 -21 16 C-21 15.67 -21 15.34 -21 15 C-13.08 14.505 -13.08 14.505 -5 14 C-4.0409375 10.8134375 -4.0409375 10.8134375 -3.0625 7.5625 C-1.125 1.125 -1.125 1.125 0 0 Z " fill="#F6F6F8" transform="translate(92,103)"/>
<path d="M0 0 C0.66 0 1.32 0 2 0 C2.67220351 1.93558599 3.33758077 3.87354372 4 5.8125 C4.556875 7.43091797 4.556875 7.43091797 5.125 9.08203125 C6 12 6 12 6 15 C11.28 15 16.56 15 22 15 C18.12038353 18.87961647 15.43416733 21.2157554 11 24 C11.69165788 29.41798672 12.75799248 34.6822785 14 40 C13.25234375 39.4946875 12.5046875 38.989375 11.734375 38.46875 C10.74953125 37.8190625 9.7646875 37.169375 8.75 36.5 C7.28820312 35.52546875 7.28820312 35.52546875 5.796875 34.53125 C2.94667146 32.67985009 2.94667146 32.67985009 -1 33 C-3.6513729 34.5172598 -3.6513729 34.5172598 -6.25 36.5 C-7.58804688 37.47453125 -7.58804688 37.47453125 -8.953125 38.46875 C-9.62859375 38.9740625 -10.3040625 39.479375 -11 40 C-12.33303504 36.00089487 -11.10536038 34.14361957 -9.59375 30.3515625 C-8.85126504 27.41093127 -8.93972347 25.84863995 -10 23 C-12.27362888 20.92659997 -12.27362888 20.92659997 -15.0625 19.25 C-16.71819969 18.18180665 -18.3669602 17.10252415 -20 16 C-20 15.67 -20 15.34 -20 15 C-14.72 15 -9.44 15 -4 15 C-3.525625 13.2675 -3.05125 11.535 -2.5625 9.75 C-2.29566406 8.77546875 -2.02882812 7.8009375 -1.75390625 6.796875 C-1.14455416 4.53627347 -0.55761745 2.27377991 0 0 Z " fill="#F6F6F8" transform="translate(231,223)"/>
<path d="M0 0 C4.36428792 3.58189457 4.69678384 8.72507746 6 14 C11.28 14 16.56 14 22 14 C18.12038353 17.87961647 15.43416733 20.2157554 11 23 C11.59015185 28.50808397 12.56663769 33.64878069 14 39 C9.65829477 36.6163187 5.7935871 34.21880117 2 31 C-3.08938811 32.59043379 -6.87456643 35.7446951 -11 39 C-12.152143 35.54357099 -11.80875337 34.84707 -10.5625 31.5625 C-9.33348958 28.30534683 -9 26.61614577 -9 23 C-11.43188814 20.78278473 -11.43188814 20.78278473 -14.5 18.8125 C-16.34416806 17.55744118 -18.18060403 16.29070786 -20 15 C-20 14.67 -20 14.34 -20 14 C-14.72 14 -9.44 14 -4 14 C-3.71125 12.618125 -3.4225 11.23625 -3.125 9.8125 C-2.36695066 6.3796194 -1.45231137 3.21583233 0 0 Z " fill="#F6F6F8" transform="translate(138,144)"/>
<path d="M0 0 C1.74949772 2.62424658 2.65389981 4.55727216 3.625 7.5 C4.01558594 8.66015625 4.01558594 8.66015625 4.4140625 9.84375 C5 12 5 12 5 15 C10.28 15 15.56 15 21 15 C17.12038353 18.87961647 14.43416733 21.2157554 10 24 C10.45828147 27.20797026 11.02446297 30.06795269 12.125 33.125 C13 36 13 36 12 40 C8.37 37.36 4.74 34.72 1 32 C-2.8592646 33.9296323 -5.83479454 36.10744173 -9.1953125 38.7578125 C-11 40 -11 40 -13 40 C-12.54548816 38.26982492 -12.08621143 36.54090123 -11.625 34.8125 C-11.24214844 33.36810547 -11.24214844 33.36810547 -10.8515625 31.89453125 C-10.05233704 29.17789793 -9.0968638 26.60862825 -8 24 C-8.99 23.690625 -8.99 23.690625 -10 23.375 C-14.09301378 21.49903535 -17.57494912 18.91511774 -21 16 C-21 15.67 -21 15.34 -21 15 C-13.08 14.505 -13.08 14.505 -5 14 C-4.0409375 10.8134375 -4.0409375 10.8134375 -3.0625 7.5625 C-1.125 1.125 -1.125 1.125 0 0 Z " fill="#F6F6F8" transform="translate(92,183)"/>
<path d="M0 0 C2 1 2 1 3.0703125 3.94140625 C4.046875 7.29427083 5.0234375 10.64713542 6 14 C11.28 14.33 16.56 14.66 22 15 C19.3998525 17.6001475 17.28520326 19.67311485 14.375 21.75 C13.78460938 22.17796875 13.19421875 22.6059375 12.5859375 23.046875 C11 24 11 24 9 24 C9.3609375 24.98742187 9.721875 25.97484375 10.09375 26.9921875 C10.56266681 28.28639791 11.03140769 29.58067206 11.5 30.875 C11.73847656 31.52597656 11.97695313 32.17695313 12.22265625 32.84765625 C14 37.7734375 14 37.7734375 14 40 C10.14688561 38.24936451 7.27623635 35.8020657 4.09765625 33.046875 C2.00054187 31.71385233 2.00054187 31.71385233 -0.453125 32.6328125 C-3.01659452 34.0089081 -5.41409441 35.47833348 -7.8125 37.125 C-8.60269531 37.66382813 -9.39289062 38.20265625 -10.20703125 38.7578125 C-10.79871094 39.16773438 -11.39039063 39.57765625 -12 40 C-11.30834212 34.58201328 -10.24200752 29.3177215 -9 24 C-9.7940625 23.43410156 -10.588125 22.86820313 -11.40625 22.28515625 C-12.4271875 21.55167969 -13.448125 20.81820312 -14.5 20.0625 C-15.5209375 19.33160156 -16.541875 18.60070312 -17.59375 17.84765625 C-18.78484375 16.93306641 -18.78484375 16.93306641 -20 16 C-20 15.67 -20 15.34 -20 15 C-14.72 15 -9.44 15 -4 15 C-3.71125 13.63875 -3.4225 12.2775 -3.125 10.875 C-2.30268853 7.15697742 -1.28811966 3.58833335 0 0 Z " fill="#F6F6F8" transform="translate(45,143)"/>
<path d="M0 0 C2.17186421 2.17186421 2.6793248 3.49976531 3.625 6.375 C4.01558594 7.53128906 4.01558594 7.53128906 4.4140625 8.7109375 C5 11 5 11 5 15 C10.28 15 15.56 15 21 15 C14.7 21.3 14.7 21.3 11 24 C10.34 24 9.68 24 9 24 C11.475 31.92 11.475 31.92 14 40 C10.86003369 38.43001685 8.13968349 36.82978589 5.25 34.875 C4.45078125 34.33617187 3.6515625 33.79734375 2.828125 33.2421875 C2.22484375 32.83226562 1.6215625 32.42234375 1 32 C-3.34170523 34.3836813 -7.2064129 36.78119883 -11 40 C-11.66 39.67 -12.32 39.34 -13 39 C-11.35 34.05 -9.7 29.1 -8 24 C-9.32 23.34 -10.64 22.68 -12 22 C-13.59813064 21.00249131 -15.18132597 19.9807195 -16.75 18.9375 C-17.54921875 18.41027344 -18.3484375 17.88304687 -19.171875 17.33984375 C-19.77515625 16.89769531 -20.3784375 16.45554688 -21 16 C-21 15.67 -21 15.34 -21 15 C-15.39 15 -9.78 15 -4 15 C-3.67 12.69 -3.34 10.38 -3 8 C-2.14816137 5.25028257 -1.07924619 2.6746536 0 0 Z " fill="#F6F6F9" transform="translate(185,183)"/>
<path d="M0 0 C4.36428792 3.58189457 4.69678384 8.72507746 6 14 C11.28 14 16.56 14 22 14 C18.40360547 17.59639453 15.13521513 20.13715875 11 23 C11.69165788 28.41798672 12.75799248 33.6822785 14 39 C13.25234375 38.4946875 12.5046875 37.989375 11.734375 37.46875 C10.74953125 36.8190625 9.7646875 36.169375 8.75 35.5 C7.28820312 34.52546875 7.28820312 34.52546875 5.796875 33.53125 C2.94667146 31.67985009 2.94667146 31.67985009 -1 32 C-3.87355717 33.52053304 -3.87355717 33.52053304 -6.75 35.5 C-8.22726563 36.47453125 -8.22726563 36.47453125 -9.734375 37.46875 C-10.48203125 37.9740625 -11.2296875 38.479375 -12 39 C-11.86722656 38.43152344 -11.73445313 37.86304688 -11.59765625 37.27734375 C-10.5115242 32.52848903 -9.61687618 27.83219676 -9 23 C-9.7940625 22.43410156 -10.588125 21.86820313 -11.40625 21.28515625 C-12.4271875 20.55167969 -13.448125 19.81820312 -14.5 19.0625 C-15.5209375 18.33160156 -16.541875 17.60070312 -17.59375 16.84765625 C-18.3878125 16.23792969 -19.181875 15.62820312 -20 15 C-20 14.67 -20 14.34 -20 14 C-14.72 14 -9.44 14 -4 14 C-3.71125 12.618125 -3.4225 11.23625 -3.125 9.8125 C-2.36695066 6.3796194 -1.45231137 3.21583233 0 0 Z " fill="#F7F7F9" transform="translate(138,224)"/>
<path d="M0 0 C2 1 2 1 3.0703125 3.94140625 C4.046875 7.29427083 5.0234375 10.64713542 6 14 C11.28 14.33 16.56 14.66 22 15 C19.3998525 17.6001475 17.28520326 19.67311485 14.375 21.75 C13.78460938 22.17796875 13.19421875 22.6059375 12.5859375 23.046875 C11 24 11 24 9 24 C9.28875 24.74765625 9.5775 25.4953125 9.875 26.265625 C10.24625 27.25046875 10.6175 28.2353125 11 29.25 C11.37125 30.22453125 11.7425 31.1990625 12.125 32.203125 C13 35 13 35 13 39 C9.48506732 37.45342962 6.79098411 35.28751326 3.87890625 32.828125 C1.94704243 31.74070199 1.94704243 31.74070199 -0.421875 32.6640625 C-3.01759683 34.00911836 -5.40285297 35.47061547 -7.8125 37.125 C-8.60269531 37.66382813 -9.39289062 38.20265625 -10.20703125 38.7578125 C-10.79871094 39.16773438 -11.39039063 39.57765625 -12 40 C-11.30834212 34.58201328 -10.24200752 29.3177215 -9 24 C-9.7940625 23.43410156 -10.588125 22.86820313 -11.40625 22.28515625 C-12.4271875 21.55167969 -13.448125 20.81820312 -14.5 20.0625 C-15.5209375 19.33160156 -16.541875 18.60070312 -17.59375 17.84765625 C-18.78484375 16.93306641 -18.78484375 16.93306641 -20 16 C-20 15.67 -20 15.34 -20 15 C-14.72 15 -9.44 15 -4 15 C-3.71125 13.453125 -3.4225 11.90625 -3.125 10.3125 C-2.40424822 6.68299997 -1.57309607 3.37092016 0 0 Z " fill="#F7F7F9" transform="translate(45,223)"/>
</svg>
